<?xml version="1.0" encoding="iso-8859-1"?>
<!-- Generator: Adobe Illustrator 19.0.0, SVG Export Plug-In . SVG Version: 6.00 Build 0)  -->
<svg xmlns="http://www.w3.org/2000/svg" xmlns:xlink="http://www.w3.org/1999/xlink" version="1.1" id="Capa_1" x="0px" y="0px" viewBox="0 0 511.999 511.999" style="enable-background:new 0 0 511.999 511.999;" xml:space="preserve" width="512px" height="512px">
<g>
	<g>
		<g>
			<path d="M128.113,167.769l-0.471,0.211c-5.047,2.242-7.319,8.152-5.077,13.199c1.656,3.727,5.313,5.941,9.145,5.941     c1.356,0,2.736-0.279,4.056-0.865l0.693-0.311c5.019-2.305,7.22-8.242,4.915-13.262     C139.07,167.666,133.131,165.466,128.113,167.769z" fill="#91DC5A"/>
			<path d="M511.368,96.688c-0.567-4.129-3.636-7.473-7.7-8.393c-4.063-0.918-8.273,0.777-10.562,4.26     c-16.155,24.574-48.256,29.732-72.34,29.732c-14.908,0-28.513-1.926-37.301-3.541c-3.449-0.635-6.977-1.529-10.711-2.477     c-7.713-1.957-15.688-3.98-24.129-3.98c-7.555,0-14.291,1.623-20.592,4.961c-8.558,4.531-26.591,19.053-9.252,55.948     c3.65,7.771,2.772,16.057-2.61,24.625c-7.134,11.354-20.89,20.867-32.334,24.934l1.645-102.513     c14.883-9.686,24.752-26.457,24.752-45.498c0-29.918-24.341-54.26-54.26-54.26s-54.259,24.342-54.259,54.26     c0,19.041,9.868,35.813,24.752,45.498l1.643,102.495c-11.434-4.078-25.158-13.58-32.279-24.916     c-5.383-8.568-6.262-16.854-2.611-24.625c17.34-36.895-0.693-51.416-9.25-55.946c-6.303-3.34-13.039-4.963-20.594-4.963     c-8.44,0-16.416,2.023-24.128,3.98c-3.735,0.947-7.263,1.842-10.713,2.477c-8.786,1.615-22.39,3.541-37.3,3.541     c-24.082,0-56.183-5.156-72.339-29.732c-2.291-3.482-6.5-5.18-10.563-4.26c-4.064,0.92-7.133,4.264-7.701,8.393     c-0.111,0.809-2.656,20.068,3.331,41.309c7.252,25.727,23.665,43.426,47.759,51.714c-1.525,7.693-1.871,18.076,3.836,26.85     c5.363,8.248,14.447,12.914,27.048,13.91c1.374,5.939,4.271,13.459,10.372,19.598c6.734,6.777,16.054,10.359,26.949,10.359     c3.223,0,6.631-0.309,10.203-0.922c0.36,2.119,0.819,4.373,1.402,6.633c5.407,20.959,16.979,24.088,23.395,24.088     c6.027,0,12.232-2.65,18.801-8.063c4.74,3.072,11.587,5.24,21.469,5.24c3.395,0,6.898-0.248,10.404-0.668     c-8.43,11.535-15.267,26.146-14.268,42.576c1.258,20.697,14.491,39.531,39.386,56.177l0.093,5.781     c-26.891,16.988-39.513,34.183-38.457,52.231c1.765,30.143,41.891,45.719,46.459,47.397c0.072,0.025,0.146,0.043,0.219,0.068     c0.16,0.055,0.32,0.107,0.484,0.154c0.154,0.043,0.309,0.082,0.463,0.117c0.137,0.033,0.273,0.066,0.412,0.092     c0.223,0.043,0.444,0.074,0.666,0.102c0.079,0.008,0.156,0.023,0.235,0.031c0.323,0.031,0.645,0.051,0.966,0.051     c0.025,0,0.051-0.004,0.076-0.004h27.273c0.025,0,0.051,0.004,0.076,0.004c0.32,0,0.642-0.02,0.966-0.051     c0.078-0.008,0.156-0.023,0.234-0.031c0.223-0.027,0.443-0.059,0.666-0.102c0.139-0.025,0.275-0.058,0.412-0.092     c0.155-0.035,0.31-0.074,0.464-0.117c0.164-0.047,0.324-0.1,0.484-0.154c0.072-0.025,0.146-0.043,0.218-0.068     c4.569-1.678,44.695-17.254,46.461-47.397c1.057-18.047-11.566-35.242-38.457-52.233l0.092-5.777     c24.896-16.646,38.129-35.48,39.388-56.179c0.999-16.434-5.842-31.047-14.272-42.582c3.525,0.424,7.049,0.674,10.462,0.674     c9.882,0,16.728-2.168,21.468-5.24c6.569,5.412,12.774,8.063,18.802,8.063c6.417,0,17.987-3.131,23.393-24.088     c0.584-2.26,1.043-4.512,1.403-6.631c3.571,0.611,6.977,0.92,10.198,0.92c0.002,0,0.004,0,0.006,0     c10.895,0,20.214-3.584,26.947-10.361c6.101-6.139,8.998-13.658,10.371-19.596c12.601-0.998,21.686-5.666,27.049-13.912     c5.705-8.773,5.359-19.154,3.834-26.848c24.096-8.287,40.509-25.986,47.761-51.714     C514.024,116.756,511.479,97.497,511.368,96.688z M195.197,267.405c-6.396,0-10.898-1.291-11.752-3.367     c-1.303-3.174-4.143-5.457-7.523-6.051c-3.381-0.596-6.826,0.59-9.132,3.131c-7.41,8.166-11.106,9.014-11.757,9.1     c-2.533-1.693-5.854-12.658-6.213-23.467c-0.096-3.139-1.662-6.051-4.227-7.863c-1.709-1.207-3.729-1.832-5.77-1.832     c-1.025,0-2.057,0.158-3.056,0.479c-5.987,1.922-11.316,2.895-15.841,2.895c-7.765,0-12.786-2.785-15.803-8.766     c-2.669-5.289-2.75-11.014-2.75-11.014c0.018-2.746-1.097-5.381-3.08-7.281c-1.984-1.902-4.664-2.91-7.406-2.77     c-1.018,0.051-2.016,0.076-2.967,0.076c-5.613,0-12.873-0.867-15.58-4.99c-1.867-2.844-1.813-7.328-1.105-11.381     c5.508,0.787,11.215,1.188,17.018,1.188c4.993,0,10.056-0.293,15.119-0.885c5.486-0.639,9.414-5.605,8.774-11.09     c-0.64-5.486-5.608-9.412-11.091-8.775c-12.06,1.408-24.002,0.836-34.536-1.652c-0.033-0.008-0.066-0.01-0.101-0.018     c-0.027-0.006-0.054-0.018-0.082-0.023c-32.01-6.93-42.26-31.047-45.26-49.832c17.374,12.553,41.139,19.074,70.157,19.074     c16.418,0,31.313-2.105,40.916-3.871c4.105-0.756,8.126-1.775,12.014-2.762c6.823-1.73,13.268-3.365,19.211-3.365     c4.27,0,7.838,0.838,11.234,2.637c7.703,4.078,7.875,14.094,0.509,29.766c-6.545,13.932-5.204,29.475,3.776,43.77     c11.255,17.916,32.521,31.074,49.549,35.115l0.242,15.098l0.039,2.365C218.008,264.417,205.06,267.405,195.197,267.405z      M211.3,328.157c-0.945-15.102,8.752-28.94,17.883-38.49l1.131,70.581C218.372,349.955,211.992,339.221,211.3,328.157z      M212.322,442.334c-0.305-5.201,2.42-14.475,18.875-27.045L232,465.392C222.71,459.811,212.863,451.585,212.322,442.334z      M259.843,471.51h-7.741l-1.105-68.954c1.598-0.893,3.248-1.793,4.976-2.707c1.729,0.914,3.379,1.814,4.977,2.705L259.843,471.51     z M261.405,374.291c-1.752,1.01-3.561,2.016-5.43,3.016c-1.867-1-3.678-2.006-5.43-3.018l-1.704-106.255     c-0.001-0.004,0-0.008,0-0.012l-0.206-12.805l-2.036-127.011c0.331,0.057,0.667,0.1,1,0.15c0.089,0.015,0.179,0.028,0.269,0.042     c0.748,0.111,1.498,0.207,2.253,0.287c0.175,0.02,0.349,0.039,0.523,0.057c0.696,0.066,1.395,0.119,2.095,0.16     c0.198,0.012,0.395,0.027,0.594,0.037c1.76,0.084,3.525,0.084,5.284,0c0.196-0.01,0.39-0.025,0.586-0.037     c0.703-0.041,1.403-0.094,2.103-0.16c0.174-0.018,0.346-0.037,0.518-0.057c0.756-0.08,1.508-0.176,2.258-0.287     c0.09-0.014,0.18-0.027,0.27-0.041c0.333-0.051,0.668-0.094,1-0.15L261.405,374.291z M299.626,442.31     c-0.523,9.195-10.379,17.436-19.682,23.041l0.804-50.063C297.188,427.847,299.921,437.113,299.626,442.31z M264.632,107.893     c-0.059,0.016-0.118,0.033-0.177,0.047c-0.477,0.123-0.957,0.233-1.441,0.334c-0.107,0.024-0.215,0.045-0.322,0.066     c-0.453,0.09-0.908,0.172-1.367,0.244c-0.156,0.023-0.313,0.045-0.469,0.066c-0.422,0.06-0.846,0.117-1.272,0.162     c-0.223,0.023-0.447,0.039-0.67,0.057c-0.375,0.033-0.748,0.066-1.125,0.086c-0.358,0.02-0.718,0.023-1.077,0.031     c-0.247,0.004-0.491,0.018-0.739,0.018c-0.247,0-0.491-0.014-0.737-0.018c-0.36-0.008-0.721-0.012-1.079-0.031     c-0.374-0.02-0.745-0.053-1.116-0.084c-0.227-0.02-0.454-0.035-0.679-0.059c-0.424-0.045-0.844-0.102-1.262-0.16     c-0.16-0.023-0.321-0.045-0.481-0.07c-0.455-0.07-0.907-0.152-1.355-0.242c-0.112-0.021-0.224-0.045-0.336-0.068     c-0.479-0.1-0.956-0.209-1.429-0.33c-0.064-0.016-0.131-0.035-0.196-0.051c-14.704-3.852-25.587-17.25-25.587-33.145     c-0.001-18.89,15.368-34.259,34.257-34.259c18.891,0,34.259,15.369,34.259,34.26C290.232,90.647,279.343,104.05,264.632,107.893z      M300.649,328.1c-0.674,11.086-7.055,21.836-19.018,32.148l1.13-70.485C291.877,299.344,301.557,313.17,300.649,328.1z      M445.661,173.046c-0.027,0.006-0.053,0.018-0.081,0.023c-0.034,0.008-0.067,0.01-0.102,0.018     c-10.533,2.488-22.476,3.059-34.536,1.652c-5.482-0.633-10.451,3.289-11.09,8.775c-0.641,5.484,3.289,10.451,8.773,11.09     c5.065,0.592,10.127,0.885,15.121,0.885c5.801,0,11.508-0.4,17.014-1.188c0.71,4.059,0.764,8.537-1.102,11.379     c-2.709,4.125-9.969,4.99-15.582,4.992c-0.002,0-0.004,0-0.006,0c-0.947,0-1.943-0.025-2.961-0.076     c-2.746-0.127-5.422,0.834-7.406,2.734c-1.982,1.902-3.097,4.5-3.08,7.248c0,0.057-0.078,5.787-2.748,11.08     c-3.017,5.982-8.039,8.768-15.803,8.768c-0.002,0-0.002,0-0.004,0c-4.521,0-9.85-0.973-15.836-2.895     c-2.991-0.961-6.259-0.459-8.824,1.354c-2.566,1.813-4.131,4.725-4.227,7.863c-0.304,9.945-3.414,21.629-6.213,23.467     c-0.648-0.086-4.344-0.928-11.758-9.1c-1.913-2.109-4.611-3.281-7.406-3.281c-0.573,0-1.15,0.049-1.727,0.15     c-3.38,0.594-6.22,2.877-7.523,6.051c-0.853,2.076-5.355,3.367-11.751,3.367c-9.864,0-22.812-2.988-33.527-6.363l0.28-17.463     c17.028-4.041,38.295-17.199,49.55-35.115c8.979-14.295,10.321-29.838,3.775-43.77c-7.365-15.672-7.194-25.688,0.512-29.766     c3.394-1.799,6.963-2.637,11.231-2.637c5.944,0,12.389,1.635,19.211,3.365c3.889,0.986,7.908,2.006,12.013,2.762     c9.606,1.766,24.503,3.871,40.917,3.871c29.02,0,52.782-6.521,70.156-19.074C487.921,142.003,477.669,166.117,445.661,173.046z" fill="#91DC5A"/>
			<path d="M384.322,167.964l-0.473-0.211c-5.029-2.287-10.957-0.063-13.242,4.965c-2.285,5.027-0.063,10.957,4.966,13.242     l0.694,0.311c1.311,0.576,2.678,0.85,4.022,0.85c3.845,0,7.511-2.23,9.159-5.977     C391.672,176.089,389.378,170.189,384.322,167.964z" fill="#91DC5A"/>
		</g>
	</g>
</g>
<g>
</g>
<g>
</g>
<g>
</g>
<g>
</g>
<g>
</g>
<g>
</g>
<g>
</g>
<g>
</g>
<g>
</g>
<g>
</g>
<g>
</g>
<g>
</g>
<g>
</g>
<g>
</g>
<g>
</g>
</svg>
